<?xml version="1.0" encoding="UTF-8"?>
<!-- Generator: Adobe Illustrator 24.1.1, SVG Export Plug-In . SVG Version: 6.00 Build 0)  -->
<svg version="1.1" id="Layer_1" xmlns="http://www.w3.org/2000/svg" xmlns:xlink="http://www.w3.org/1999/xlink" x="0px" y="0px" viewBox="0 0 512 512" style="enable-background:new 0 0 512 512;" xml:space="preserve">
<g>
	<path d="M437,75C388.7,26.6,324.4,0,256,0S123.3,26.6,75,75C26.6,123.3,0,187.6,0,256s26.6,132.7,75,181c48.3,48.4,112.6,75,181,75   s132.7-26.6,181-75c48.4-48.4,75-112.6,75-181S485.4,123.3,437,75z M471,173.1c-5-9-17.5-13.3-33.9-18.8c-17.6-6-23.8-24.1-31-45   c-6.2-18.2-12.7-36.9-28-48.6C420,86.9,452.9,126.3,471,173.1z M399.1,260.9c2,17.3,4,35.3-17.6,59.4c-5.8,6.5-9.2,15.6-12.8,25.2   c-8.3,22.3-16.2,43.4-49.8,43.7c-0.9-1.1-3.6-5.4-6-18.8c-2.2-12.3-3.4-28.3-4.8-45.2c-2-25.9-4.4-55.3-10.8-79.7   c-8.2-31.2-22-49.6-42-56.3c-8.8-2.9-17.7-4.4-27.3-4.4c-7.1,0-13.6,0.8-19.3,1.4c-4.4,0.5-8.6,1-12.2,1c-6,0-12.8,0-21.1-19.2   c-12-27.5-3.1-71.6,32.1-94.9c19.3-12.8,32.7-18.2,44.6-18.2c9.5,0,19.8,3.3,34.3,11.1c17.2,9.2,30.7,10.3,40.5,10.3   c3.9,0,7.4-0.2,10.8-0.4c2.9-0.2,5.6-0.3,8.1-0.3c5.6,0,10.2,0.8,15.5,4.4c9.8,6.7,15,21.6,20.4,37.3c8.2,23.8,17.5,50.9,47,60.9   c4,1.3,10.8,3.7,15.6,5.7c-4.2,4.3-11.1,10.5-18,16.6c-4.4,3.9-9.4,8.4-14.9,13.4C395.5,228.8,397.4,245.9,399.1,260.9L399.1,260.9   z M25.6,254c2.8,0.5,5.7,1.1,8.8,1.7c14.4,3.1,21.1,5.8,24.1,7.4c-1.4,2.6-4.1,6.5-5.9,9.1c-6.3,9-14.2,20.2-11.2,32.5   c2,8.3,0.3,18.5-2.6,27.9c-8.5-24-13.1-49.8-13.1-76.7L25.6,254L25.6,254z M256,486.4c-87.7,0-164.1-49.3-203-121.5   c6.7-12.8,19.1-41,13.3-65.8c0.4-2.5,4.6-8.5,7.2-12.1c6.9-9.9,15.6-22.1,9.2-35.1c-4.5-9.1-16.5-15.3-40.1-20.6   c-5.5-1.2-10.8-2.2-15.3-3C41,114.3,138.3,25.6,256,25.6c40.4,0,78.4,10.5,111.4,28.8c-8.2-3.6-15.6-4.1-21.5-4.1   c-3.3,0-6.5,0.2-9.6,0.4c-3.1,0.2-6.2,0.4-9.3,0.4c-7.3,0-16.3-0.9-28.5-7.3c-18.5-9.9-32.4-14.1-46.4-14.1   c-17.3,0-34.9,6.7-58.7,22.4c-20.6,13.6-36.1,34.4-43.7,58.6c-7.4,23.6-6.6,47.7,2.2,67.9c10.4,23.9,24.2,34.5,44.6,34.5   c5.1,0,10-0.6,15.2-1.2c5.3-0.6,10.6-1.3,16.3-1.3c6.9,0,13.1,1,19.2,3c11.3,3.8,19.5,16.4,25.4,38.5c5.8,22.1,8,50.3,10,75.2   c1.6,20.7,3.2,40.3,6.6,55.1c2.1,9,4.7,15.8,8.2,20.8c5.1,7.5,12.5,11.7,20.8,11.7c22.6,0,40.7-7.3,53.7-21.7   c10.8-12,16.4-26.7,20.8-38.6c2.6-7,5.3-14.2,8-17.2c29.1-32.7,26.1-59.6,23.9-79.3c-1.6-14.4-1.6-19.6,4.2-24.9   c5.4-4.9,10.4-9.4,14.7-13.3c9.3-8.3,16-14.3,20.7-19.4c3.2-3.5,10.8-11.8,8.7-22.1l-0.1-0.3c8.8,24.4,13.6,50.6,13.6,77.9   C486.4,383,383,486.4,256,486.4L256,486.4z"/>
</g>
<script xmlns="" id="webrtc-control-b"/></svg>